PathFileType	4	(X/Y/Z)	3_coords_data.trc
DataRate	CameraRate	NumFrames	NumMarkers	Units	OrigDataRate	OrigDataStartFrame	OrigNumFrames
30.0	30.0	9	21	m	30.0	20	78
Frame#	Time	THUMB_TIP	THUMB_IP	THUMB_MCP	THUMB_CMC	INDEX_TIP	INDEX_DIP	INDEX_PIP	INDEX_MCP	MIDDLE_TIP	MIDDLE_DIP	MIDDLE_PIP	MIDDLE_MCP	RING_TIP	RING_DIP	RING_PIP	RING_MCP	PINKY_TIP	PINKY_DIP	PINKY_PIP	PINKY_MCP	WRIST
X1	Y1	Z1	X2	Y2	Z2	X3	Y3	Z3	X4	Y4	Z4	X5	Y5	Z5	X6	Y6	Z6	X7	Y7	Z7	X8	Y8	Z8	X9	Y9	Z9	X10	Y10	Z10	X11	Y11	Z11	X12	Y12	Z12	X13	Y13	Z13	X14	Y14	Z14	X15	Y15	Z15	X16	Y16	Z16	X17	Y17	Z17	X18	Y18	Z18	X19	Y19	Z19	X20	Y20	Z20	X21	Y21	Z21
19	0.6333333333333333	-0.17893899536132812	-0.13546099853515625	0.9317420043945313	-0.17006900024414062	-0.10973300170898438	0.9411719970703125	-0.17099899291992188	-0.0880636978149414	0.9639000244140625	-0.17185899353027342	-0.055635799407958986	0.9867940063476562	-0.16406100463867188	-0.05868510055541992	0.9602949829101562	-0.1467239990234375	-0.051375198364257815	0.9534600219726562	-0.1419720001220703	-0.04697299957275391	0.9305969848632812	-0.18030900573730468	-0.05891080093383789	0.9291339721679688	-0.16128399658203124	-0.04073049926757812	0.9670900268554687	-0.15002699279785156	-0.0341338996887207	0.9625050048828125	-0.14546800231933593	-0.02688229942321777	0.9372020263671875	-0.18551899719238282	-0.035633201599121096	0.9290889892578125	-0.17050999450683593	-0.028347200393676757	0.9746199951171876	-0.15740800476074218	-0.018766000747680665	0.9688280029296875	-0.15356399536132812	-0.008495380401611328	0.9460889892578125	-0.19086000061035155	-0.01609550094604492	0.9382329711914063	-0.1759600067138672	-0.01598900032043457	0.97752001953125	-0.1624040069580078	-0.0058207597732543945	0.9728060302734375	-0.16483700561523437	0.004788229942321778	0.9577130126953125	-0.19490899658203126	0.000536918997764587	0.9499169921875	-0.19033299255371094	-0.03464179992675781	1.0106799926757812
20	0.6666666666666666	-0.17883599853515625	-0.135447998046875	0.931843994140625	-0.17018800354003907	-0.10953900146484374	0.941280029296875	-0.17145899963378905	-0.08812229919433594	0.9640490112304687	-0.17057000732421876	-0.05572000122070313	0.9868090209960938	-0.16600900268554689	-0.058258201599121096	0.9597890014648438	-0.14724200439453125	-0.051419300079345705	0.9535980224609375	-0.14188099670410156	-0.04709180068969727	0.930719970703125	-0.18059800720214844	-0.05891360092163086	0.929405029296875	-0.1613070068359375	-0.04101890182495117	0.9673380126953125	-0.1503179931640625	-0.03414780044555664	0.9620170288085937	-0.1455	-0.026779300689697267	0.9371129760742187	-0.185447998046875	-0.03561370086669922	0.9291400146484375	-0.16959300231933594	-0.02825149917602539	0.9753070068359375	-0.15741900634765624	-0.018599000930786133	0.9688939819335938	-0.1535	-0.008568619728088379	0.94635302734375	-0.1908659973144531	-0.016092500686645507	0.9383800048828125	-0.1753719940185547	-0.01626860046386719	0.9776290283203125	-0.1626860046386719	-0.005893050193786621	0.9729400024414062	-0.16398500061035157	0.0045848097801208494	0.9576069946289063	-0.19489500427246093	0.0005486739873886101	0.95002197265625	-0.19016700744628906	-0.03468989944458008	1.0106300048828125
21	0.7	-0.17877299499511717	-0.13541999816894532	0.931822998046875	-0.1700019989013672	-0.10973200225830078	0.9412760009765625	-0.17107200622558594	-0.0880344009399414	0.9640850219726562	-0.17095599365234376	-0.05572990036010742	0.9868280029296875	-0.1654239959716797	-0.05844419860839844	0.9598380126953125	-0.1471230010986328	-0.051472900390625	0.953822021484375	-0.14187100219726562	-0.04714590072631836	0.9308560180664063	-0.18035200500488283	-0.05886970138549805	0.9293930053710937	-0.16147900390625	-0.0409098014831543	0.9675170288085938	-0.15019500732421875	-0.03407490158081055	0.9627360229492188	-0.1455379943847656	-0.026822999954223634	0.9373079833984375	-0.18551699829101562	-0.035603099822998044	0.9292329711914062	-0.1697239990234375	-0.028588100433349608	0.9752080078125	-0.1572220001220703	-0.018704700469970702	0.96893798828125	-0.15354800415039063	-0.008600130081176757	0.9464099731445312	-0.19097300720214844	-0.016139699935913087	0.938448974609375	-0.1755489959716797	-0.016079099655151367	0.9777479858398438	-0.1629129943847656	-0.005913680076599121	0.9729390258789062	-0.16478399658203124	0.004831820011138916	0.9577349853515625	-0.19488499450683594	0.000512835979461669	0.9501090087890625	-0.1903890075683594	-0.03471620178222656	1.010469970703125
22	0.7333333333333333	-0.17879100036621093	-0.1354029998779297	0.9317919921875	-0.17009800720214843	-0.10962999725341797	0.9412750244140625	-0.1714739990234375	-0.08811150360107421	0.9641110229492188	-0.17088800048828126	-0.05572330093383789	0.9868270263671876	-0.1664290008544922	-0.05814670181274414	0.959948974609375	-0.14733500671386718	-0.051300498962402345	0.95385400390625	-0.14197500610351563	-0.047144599914550785	0.9308920288085938	-0.18051800537109375	-0.05887870025634766	0.929375	-0.16208700561523437	-0.04055860137939453	0.96752197265625	-0.15035899353027343	-0.03409239959716797	0.962552001953125	-0.1455760040283203	-0.02684410095214844	0.9373590087890625	-0.18546499633789063	-0.0356254997253418	0.9292239990234376	-0.16997300720214845	-0.028234100341796874	0.974802001953125	-0.15750100708007814	-0.018837900161743165	0.969083984375	-0.15355599975585937	-0.008637479782104492	0.9465029907226562	-0.19094200134277345	-0.016096200942993164	0.9384760131835937	-0.1751289978027344	-0.016179500579833986	0.9775980224609375	-0.162927001953125	-0.005999919891357422	0.9730159912109375	-0.16491099548339844	0.004705729961395263	0.9579949951171876	-0.19488800048828125	0.000514723002910614	0.9501209716796875	-0.19032200622558593	-0.03481449890136719	1.0105
23	0.7666666666666667	-0.17873800659179687	-0.13531100463867188	0.9317639770507813	-0.1699810028076172	-0.10970200347900391	0.9412639770507812	-0.17102999877929687	-0.08803079986572265	0.9641060180664063	-0.17092300415039063	-0.05581969833374024	0.9868389892578125	-0.16625599670410157	-0.0583577995300293	0.9597999877929687	-0.14744900512695314	-0.05129249954223633	0.9537899780273438	-0.1419969940185547	-0.046984500885009765	0.930906982421875	-0.18030799865722658	-0.05883549880981445	0.9292620239257813	-0.16156100463867187	-0.04067459869384766	0.9672579956054688	-0.15011099243164064	-0.034252799987792966	0.962405029296875	-0.14566200256347656	-0.026797800064086913	0.9373519897460938	-0.18551899719238282	-0.03563579940795898	0.9292039794921875	-0.1695709991455078	-0.02805929946899414	0.9751110229492187	-0.15780099487304688	-0.01871929931640625	0.9692109985351562	-0.1536009979248047	-0.00855185031890869	0.9463809814453125	-0.19108599853515626	-0.016066799163818358	0.93868798828125	-0.17541700744628907	-0.015856900215148927	0.9776500244140625	-0.16307600402832031	-0.005555650234222412	0.9732429809570312	-0.1636719970703125	0.004494929790496826	0.9577069702148437	-0.19508200073242188	0.0005713949799537651	0.9502630004882813	-0.19124800109863282	-0.03468470001220703	1.0108400268554687
24	0.8	-0.17841299438476563	-0.13527200317382812	0.9318070068359375	-0.16983399963378906	-0.10955699920654297	0.9413179931640625	-0.17129200744628906	-0.08805719757080079	0.9642169799804687	-0.1707989959716797	-0.05570349884033203	0.9869420166015626	-0.16434700012207032	-0.05849430084228516	0.9600059814453125	-0.14711500549316406	-0.05126729965209961	0.9540809936523438	-0.14193299865722656	-0.046926300048828126	0.93106201171875	-0.18032899475097655	-0.058766700744628905	0.9293359985351562	-0.16127999877929688	-0.04051810073852539	0.967594970703125	-0.14998699951171876	-0.03413010025024414	0.962697021484375	-0.14549600219726563	-0.02673469924926758	0.9375859985351562	-0.18541200256347656	-0.03560919952392578	0.92925	-0.17013499450683595	-0.027770599365234374	0.9751909790039063	-0.15732000732421875	-0.018947900772094725	0.9691580200195312	-0.15341299438476563	-0.008537890434265137	0.9467109985351563	-0.1908509979248047	-0.016051000595092773	0.9385980224609375	-0.1754909973144531	-0.016019800186157226	0.9778499755859374	-0.16295700073242186	-0.005829659938812256	0.9731129760742188	-0.1639550018310547	0.004627389907836914	0.9579630126953125	-0.19491700744628906	0.0005876970291137691	0.9502930297851563	-0.19008399963378905	-0.03471860122680664	1.0106500244140626
25	0.8333333333333334	-0.17825599670410155	-0.13521099853515625	0.9317470092773438	-0.16977200317382812	-0.10946099853515626	0.9412990112304688	-0.1711679992675781	-0.08797350311279296	0.9642490234375	-0.17020899963378905	-0.05561190032958984	0.9870059814453125	-0.16416700744628906	-0.058428699493408204	0.9600880126953125	-0.14717999267578125	-0.05120690155029297	0.9540980224609374	-0.14207200622558594	-0.04681119918823242	0.9309080200195312	-0.17999200439453125	-0.05872980117797852	0.929489013671875	-0.16201400756835938	-0.040626800537109375	0.9676290283203125	-0.15010000610351562	-0.03399570083618164	0.962552978515625	-0.14476199340820312	-0.02677899932861328	0.9376909790039063	-0.18554600524902343	-0.03548849868774414	0.9294660034179687	-0.17121299743652343	-0.028077299118041993	0.9752139892578126	-0.15758999633789061	-0.018865900039672853	0.969375	-0.15361900329589845	-0.008392000198364257	0.9467020263671875	-0.19108999633789062	-0.015953700065612794	0.9388150024414063	-0.17469500732421875	-0.015973299980163575	0.9776909790039062	-0.16288800048828125	-0.005952199935913086	0.9731060180664063	-0.16360000610351563	0.004593389987945557	0.9579210205078125	-0.19486300659179687	0.0006985170245170591	0.950333984375	-0.19085299682617188	-0.03473059844970703	1.0106400146484376
26	0.8666666666666667	-0.1783000030517578	-0.1351199951171875	0.9316019897460938	-0.16981199645996095	-0.10930599975585938	0.941239013671875	-0.17125799560546875	-0.08791829681396485	0.9642589721679687	-0.17044000244140625	-0.055552101135253905	0.9869959716796874	-0.16583900451660155	-0.05829830169677734	0.9600430297851562	-0.14734800720214844	-0.051267101287841794	0.953947021484375	-0.14196800231933593	-0.04675730133056641	0.9310999755859375	-0.18050799560546876	-0.0586500015258789	0.9295910034179687	-0.16190899658203126	-0.04070700073242187	0.9676229858398437	-0.14993299865722656	-0.03396709823608399	0.9623179931640625	-0.14571499633789062	-0.026430599212646483	0.9370540161132812	-0.18546400451660155	-0.03539739990234375	0.9294429931640625	-0.17293699645996094	-0.02830649948120117	0.9754400024414063	-0.1576999969482422	-0.018770700454711915	0.9693519897460937	-0.15313099670410157	-0.008418959617614746	0.9468809814453125	-0.19088600158691407	-0.015850299835205077	0.9386640014648437	-0.17441200256347655	-0.015852899551391603	0.97822998046875	-0.16301499938964845	-0.005847970008850098	0.9732039794921875	-0.16344099426269532	0.004633049964904785	0.958030029296875	-0.19496499633789063	0.0006995589733123771	0.9503889770507813	-0.19044700622558594	-0.03465620040893555	1.01072998046875
27	0.9	-0.1784700012207031	-0.1351529998779297	0.9315369873046875	-0.16996800231933593	-0.10934100341796875	0.9412490234375	-0.1714810028076172	-0.0879488983154297	0.9642310180664062	-0.17065199279785156	-0.055611801147460935	0.9870339965820313	-0.16693499755859376	-0.05821649932861328	0.9600679931640625	-0.14744700622558593	-0.05116279983520508	0.9541179809570313	-0.14208299255371093	-0.046891998291015625	0.930968994140625	-0.1808070068359375	-0.05870780181884765	0.929572998046875	-0.16205499267578125	-0.04040679931640625	0.96777001953125	-0.14991099548339842	-0.03424649810791015	0.9627559814453125	-0.14572200012207032	-0.02658760070800781	0.9375009765625	-0.18553999328613283	-0.03538470077514649	0.9294400024414062	-0.1705559997558594	-0.02818280029296875	0.9746740112304687	-0.15782099914550782	-0.01875230026245117	0.969468017578125	-0.15371099853515624	-0.00842436981201172	0.9468809814453125	-0.19088699340820312	-0.015819700241088867	0.9386799926757813	-0.17441299438476562	-0.015959699630737303	0.9781209716796875	-0.1629739990234375	-0.005886060237884521	0.9734429931640625	-0.16366200256347657	0.00457397985458374	0.9579639892578125	-0.19516299438476561	0.0006759039759635921	0.9503889770507813	-0.19081300354003905	-0.034722999572753904	1.0111300048828125
